<svg version="1.1" id="Layer_1" xmlns="http://www.w3.org/2000/svg" xmlns:xlink="http://www.w3.org/1999/xlink" x="0px" y="0px"
	 width="100%" viewBox="0 0 1920 1080" enable-background="new 0 0 1920 1080" xml:space="preserve">
<path fill="#000000" opacity="1.000000" stroke="none" 
	d="
M1262.000000,1081.000000 
	C841.333435,1081.000000 421.166809,1081.000000 1.000169,1081.000000 
	C1.000113,721.000122 1.000113,361.000275 1.000056,1.000314 
	C640.999756,1.000209 1280.999512,1.000209 1920.999512,1.000105 
	C1920.999634,360.999664 1920.999634,720.999329 1920.999756,1080.999512 
	C1701.500000,1081.000000 1482.000000,1081.000000 1262.000000,1081.000000 
M923.983398,701.992615 
	C923.983398,701.992615 923.953430,701.929260 923.237061,702.162476 
	C923.467285,703.454285 923.697571,704.746094 923.969299,706.029724 
	C923.969299,706.029724 923.954163,706.069214 924.309082,706.876160 
	C934.841003,706.941833 945.372925,707.031860 955.904724,707.015808 
	C956.573364,707.014771 957.240784,706.189026 958.413452,705.104370 
	C958.586304,700.391663 958.759155,695.678955 958.622375,690.180298 
	C958.413818,689.585571 958.024109,688.991089 958.023254,688.396057 
	C958.000000,672.261841 957.946960,656.126587 958.159363,639.994934 
	C958.176270,638.713867 960.078552,637.457642 962.008972,636.073975 
	C965.969849,636.072998 969.930725,636.071960 973.992065,636.962524 
	C974.320984,641.862915 974.895752,646.761353 974.934021,651.664001 
	C975.062439,668.100098 974.972473,684.537842 975.053589,700.974487 
	C975.061157,702.507874 975.687378,704.038208 976.033691,705.479004 
	C976.033691,705.479004 975.942505,705.480164 976.008789,706.435913 
	C985.957214,706.435913 995.905701,706.435913 1006.413086,706.435913 
	C1005.935303,704.277954 1005.440735,702.044250 1004.932251,699.091003 
	C1004.201538,696.555115 1003.470764,694.019287 1002.081848,690.711914 
	C1002.406494,685.496338 1002.957336,680.283081 1003.010681,675.064697 
	C1003.139526,662.466675 1002.992981,649.865967 1003.077087,637.267151 
	C1003.088379,635.573853 1003.789673,633.885254 1004.667847,632.132385 
	C1004.826660,632.081726 1004.985474,632.031067 1005.968506,632.065491 
	C1008.185852,631.735168 1010.487244,631.676880 1012.604492,631.022522 
	C1018.468689,629.210144 1024.255981,627.149292 1030.679199,624.786499 
	C1020.862488,588.259888 1011.045776,551.733337 1001.440735,514.721436 
	C1009.126221,511.080292 1017.145691,507.993378 1024.392700,503.624878 
	C1030.326050,500.048218 1034.502197,494.068481 1032.737549,486.724243 
	C1031.730225,482.531830 1028.279419,478.926453 1026.010010,474.345062 
	C1029.368286,470.173676 1033.364258,466.360413 1035.950439,461.755371 
	C1041.114868,452.559662 1046.091187,443.167389 1050.053101,433.412720 
	C1054.071167,423.520050 1057.154907,413.191650 1059.838135,402.844147 
	C1060.755249,399.307220 1061.153809,394.871643 1058.529419,390.434357 
	C1056.858032,392.840271 1055.608521,394.639008 1054.450562,396.305939 
	C1053.676758,393.870178 1052.935059,391.307709 1052.022827,388.807373 
	C1051.762817,388.094940 1051.096069,387.399323 1050.430054,387.040100 
	C1050.206299,386.919373 1049.137695,387.762482 1048.917603,388.340973 
	C1047.929321,390.938446 1047.107666,393.599274 1046.107056,396.592438 
	C1046.185425,392.196167 1045.956299,388.079590 1040.043701,386.650482 
	C1039.518066,390.079468 1039.033447,393.240631 1038.514404,396.627075 
	C1037.728638,395.181946 1037.261963,393.757355 1036.336548,392.757324 
	C1035.019165,391.333649 1033.364868,390.221771 1031.854614,388.976654 
	C1031.232056,390.670807 1030.076782,392.370544 1030.094604,394.057983 
	C1030.134888,397.897156 1030.751099,401.730286 1031.169556,405.929108 
	C1028.307129,405.929108 1026.169800,405.877808 1024.035767,405.939941 
	C1019.774414,406.064026 1018.752686,407.903717 1021.106018,411.466003 
	C1023.285706,414.765411 1025.681641,417.921906 1027.982300,421.141357 
	C1028.772705,420.758331 1029.562988,420.375336 1030.353394,419.992340 
	C1027.617188,423.715302 1024.881104,427.438232 1021.554138,430.801056 
	C1020.105103,429.436157 1018.800903,427.861267 1017.181152,426.743774 
	C1011.176575,422.601227 1008.875977,416.872437 1007.516602,409.752106 
	C1006.352539,403.654449 1002.932129,397.835205 999.785828,392.304596 
	C995.208435,384.258362 987.331177,380.269562 978.919373,376.372589 
	C968.293274,372.999329 957.635681,372.518860 947.025879,376.059845 
	C947.025879,376.059845 947.069641,375.972137 946.663818,376.294769 
	C946.222534,376.487671 945.781189,376.680603 944.549561,376.909729 
	C940.840698,378.293640 936.982605,379.374664 933.449463,381.115295 
	C920.027710,387.727509 909.591736,397.179169 904.339600,412.104156 
	C903.551331,415.831451 902.202698,419.545013 902.110779,423.289398 
	C901.984070,428.452942 903.267334,433.655518 903.091187,438.812164 
	C902.917114,443.908569 901.679260,448.968689 901.019531,454.022888 
	C901.019531,454.022888 901.001526,453.910767 900.363525,454.045776 
	C900.285095,454.656647 900.206665,455.267517 899.770081,456.471832 
	C898.006470,458.658844 895.974731,460.683380 894.531799,463.064728 
	C890.866821,469.113190 889.358643,476.696991 894.747009,483.245728 
	C897.152161,486.168854 899.539368,489.132538 901.639526,492.275116 
	C905.190491,497.588654 904.784241,499.843201 899.199524,504.031311 
	C897.984985,504.330261 896.708557,504.485321 895.574890,504.972504 
	C894.623779,505.381317 893.839050,506.177399 892.980652,506.802002 
	C893.871826,507.562347 894.646912,508.669525 895.677185,509.014496 
	C898.216370,509.864777 900.872742,510.365021 903.477478,510.982178 
	C903.477478,510.982178 903.455139,510.993958 903.910156,511.451630 
	C905.078064,511.833435 906.245911,512.215271 908.114868,512.870972 
	C910.896912,513.578552 913.678955,514.286072 916.881653,515.618530 
	C911.582581,524.218994 906.280823,532.817749 900.986084,541.420837 
	C898.880066,544.842834 896.435791,548.111023 894.762146,551.734070 
	C890.630249,560.678650 882.737366,563.722229 874.067017,566.053284 
	C868.826538,567.462158 862.054016,568.112793 861.261841,574.866089 
	C860.661499,579.983521 861.744812,585.607239 863.383850,590.575134 
	C864.568237,594.164978 868.247009,596.387451 872.458008,593.878113 
	C875.909668,591.821289 879.151733,589.412781 882.521240,587.136841 
	C882.359436,589.751160 882.200195,592.324951 881.998413,595.585266 
	C892.192261,592.064575 898.123352,585.208862 903.363525,577.373291 
	C910.392456,566.863098 917.686462,556.530090 924.961487,546.945007 
	C924.269592,549.881653 923.600891,552.823975 922.881958,555.753967 
	C919.601379,569.123230 916.432678,582.521667 912.979614,595.846375 
	C909.935913,607.591492 906.568909,619.252869 903.177490,631.557861 
	C906.577148,632.130676 909.724121,632.660828 913.314575,633.896973 
	C917.857239,634.275269 922.406311,634.592041 926.939819,635.059082 
	C929.056824,635.277039 930.889709,635.713196 931.005798,638.679688 
	C931.564880,652.971558 932.365906,667.253784 932.968750,681.544189 
	C933.117065,685.060425 932.844421,688.594360 932.172119,692.347839 
	C929.861267,695.261108 927.550354,698.174377 924.598999,700.995605 
	C924.371216,701.322083 924.143433,701.648560 923.983398,701.992615 
z"/>
<path fill="#9CB894" opacity="1.000000" stroke="none" 
	d="
M1001.229065,515.206726 
	C1011.045776,551.733337 1020.862488,588.259888 1029.981689,624.898315 
	C1022.800232,626.637573 1016.301270,628.209045 1009.842712,629.931519 
	C1008.210571,630.366821 1006.706970,631.284424 1005.144348,631.980408 
	C1004.985474,632.031067 1004.826660,632.081726 1004.001221,632.025146 
	C1000.249878,632.290955 997.156677,632.605225 994.082092,633.049133 
	C987.346924,634.021606 980.621216,635.059692 973.891602,636.070984 
	C969.930725,636.071960 965.969849,636.072998 961.097412,636.009827 
	C952.940918,635.647522 945.689819,635.452759 938.452576,635.024231 
	C929.919128,634.518799 921.397705,633.811035 912.871033,633.191040 
	C909.724121,632.660828 906.577148,632.130676 903.177490,631.557861 
	C906.568909,619.252869 909.935913,607.591492 912.979614,595.846375 
	C916.432678,582.521667 919.601379,569.123230 922.881958,555.753967 
	C923.600891,552.823975 924.269592,549.881653 925.136108,546.192505 
	C926.639404,538.436951 927.828369,531.403687 929.334595,524.438965 
	C930.958069,516.931885 929.606995,513.582092 922.728455,509.168854 
	C922.790771,506.047302 917.364502,504.641449 920.546875,501.204742 
	C928.512634,492.602386 936.524841,484.002167 948.311340,479.953705 
	C957.056824,484.413330 965.614136,481.664490 968.149536,473.672028 
	C978.487793,470.115082 988.502563,466.833344 998.610535,464.000763 
	C1000.833008,473.303070 1002.962158,482.156189 1005.172485,491.370209 
	C1007.729431,496.854004 1003.176758,498.004089 1000.527649,500.368896 
	C999.153870,501.595215 997.125488,503.607574 997.383057,504.853363 
	C998.119873,508.417206 999.874573,511.770599 1001.229065,515.206726 
z"/>
<path fill="#2C1504" opacity="1.000000" stroke="none" 
	d="
M947.950317,479.807556 
	C936.524841,484.002167 928.512634,492.602386 920.546875,501.204742 
	C917.364502,504.641449 922.790771,506.047302 922.425415,509.380127 
	C920.252136,511.615753 918.356567,513.304688 916.460999,514.993652 
	C913.678955,514.286072 910.896912,513.578552 907.552368,512.466187 
	C905.811584,511.705536 904.633362,511.349762 903.455139,510.993958 
	C903.455139,510.993958 903.477478,510.982178 903.417847,510.616028 
	C900.816650,509.176819 898.275085,508.103729 895.583862,506.967438 
	C897.406860,505.786346 898.709167,504.942566 900.011475,504.098785 
	C904.784241,499.843201 905.190491,497.588654 901.639526,492.275116 
	C899.539368,489.132538 897.152161,486.168854 894.747009,483.245728 
	C889.358643,476.696991 890.866821,469.113190 894.531799,463.064728 
	C895.974731,460.683380 898.006470,458.658844 900.261414,456.060638 
	C900.835693,455.069885 900.918640,454.490326 901.001526,453.910767 
	C901.001526,453.910767 901.019531,454.022888 901.345032,454.028320 
	C902.368103,449.042908 903.330261,444.071838 903.705383,439.056854 
	C904.377319,430.072662 904.695984,421.062012 905.162292,412.062439 
	C909.591736,397.179169 920.027710,387.727509 933.449463,381.115295 
	C936.982605,379.374664 940.840698,378.293640 945.155212,376.747803 
	C946.197144,376.381287 946.633362,376.176727 947.069641,375.972168 
	C947.069641,375.972137 947.025879,376.059845 947.430969,376.058472 
	C958.278381,374.529510 968.658508,374.680603 978.950623,377.209015 
	C987.331177,380.269562 995.208435,384.258362 999.785828,392.304596 
	C1002.932129,397.835205 1006.352539,403.654449 1007.516602,409.752106 
	C1008.875977,416.872437 1011.176575,422.601227 1017.181152,426.743774 
	C1018.800903,427.861267 1020.105103,429.436157 1021.991394,431.306305 
	C1022.212036,433.261749 1022.406494,434.955200 1021.714661,436.124115 
	C1015.535889,446.563293 1007.990601,455.882111 998.517273,463.551575 
	C988.502563,466.833344 978.487793,470.115082 967.982300,473.357361 
	C968.575256,472.231567 969.571777,471.037415 970.758545,470.078796 
	C974.633301,466.948853 979.016113,464.312744 982.367188,460.708923 
	C985.504944,457.334503 988.359009,454.575867 993.198120,453.617371 
	C997.979858,452.670227 1001.985962,446.382721 1001.690002,441.876526 
	C1001.304993,436.012695 996.765442,435.353729 992.299316,434.027924 
	C988.582092,432.924438 984.488770,431.341461 981.872803,428.681671 
	C977.900452,424.642944 975.063293,419.487701 971.121704,413.929321 
	C970.633240,420.015228 970.171265,425.770935 969.692688,431.734283 
	C966.902283,431.528870 963.451050,431.274811 959.888489,430.683228 
	C957.725403,430.268585 955.673706,430.191437 953.204834,430.255402 
	C943.863586,429.931458 934.939514,429.466431 925.707397,429.080688 
	C924.767029,429.126526 924.134888,429.093109 923.328918,428.704956 
	C918.704529,423.087952 920.027893,416.920258 920.936523,409.489716 
	C914.863647,421.340271 914.280457,432.591125 914.912170,444.467834 
	C911.880066,452.434265 912.387634,454.557312 918.483826,460.115601 
	C923.780823,471.529999 932.814392,476.611328 944.650024,477.580078 
	C945.803162,477.674438 946.852661,479.034821 947.950317,479.807556 
z"/>
<path fill="#FECFAC" opacity="1.000000" stroke="none" 
	d="
M998.610535,464.000793 
	C1007.990601,455.882111 1015.535889,446.563293 1021.714661,436.124115 
	C1022.406494,434.955200 1022.212036,433.261749 1022.286743,431.486389 
	C1024.881104,427.438232 1027.617188,423.715302 1030.353394,419.992340 
	C1029.562988,420.375336 1028.772705,420.758331 1027.982300,421.141357 
	C1025.681641,417.921906 1023.285706,414.765411 1021.106018,411.466003 
	C1018.752686,407.903717 1019.774414,406.064026 1024.035767,405.939941 
	C1026.169800,405.877808 1028.307129,405.929108 1031.169556,405.929108 
	C1030.751099,401.730286 1030.134888,397.897156 1030.094604,394.057983 
	C1030.076782,392.370544 1031.232056,390.670807 1031.854614,388.976685 
	C1033.364868,390.221771 1035.019165,391.333649 1036.336548,392.757324 
	C1037.261963,393.757355 1037.728638,395.181946 1038.514404,396.627075 
	C1039.033447,393.240631 1039.518066,390.079468 1040.043701,386.650482 
	C1045.956299,388.079590 1046.185425,392.196167 1046.107056,396.592438 
	C1047.107666,393.599274 1047.929321,390.938446 1048.917603,388.340973 
	C1049.137695,387.762482 1050.206299,386.919373 1050.430054,387.040100 
	C1051.096069,387.399323 1051.762817,388.094940 1052.022827,388.807373 
	C1052.935059,391.307709 1053.676758,393.870178 1054.450562,396.305939 
	C1055.608521,394.639008 1056.858032,392.840271 1058.529419,390.434357 
	C1061.153809,394.871643 1060.755249,399.307220 1059.838135,402.844147 
	C1057.154907,413.191650 1054.071167,423.520050 1050.053101,433.412720 
	C1046.091187,443.167389 1041.114868,452.559662 1035.950439,461.755371 
	C1033.364258,466.360413 1029.368286,470.173676 1025.607178,474.693237 
	C1024.392212,475.430328 1023.460510,475.674316 1022.786865,476.230804 
	C1016.862244,481.125336 1010.983643,486.075562 1005.091370,491.009308 
	C1002.962158,482.156189 1000.833008,473.303070 998.610535,464.000793 
z"/>
<path fill="#FECFAC" opacity="1.000000" stroke="none" 
	d="
M916.671326,515.306091 
	C918.356567,513.304688 920.252136,511.615753 922.450806,509.715546 
	C929.606995,513.582092 930.958069,516.931885 929.334595,524.438965 
	C927.828369,531.403687 926.639404,538.436951 925.088745,545.780579 
	C917.686462,556.530090 910.392456,566.863098 903.363525,577.373291 
	C898.123352,585.208862 892.192261,592.064575 881.998413,595.585266 
	C882.200195,592.324951 882.359436,589.751160 882.521240,587.136841 
	C879.151733,589.412781 875.909668,591.821289 872.458008,593.878113 
	C868.247009,596.387451 864.568237,594.164978 863.383850,590.575134 
	C861.744812,585.607239 860.661499,579.983521 861.261841,574.866089 
	C862.054016,568.112793 868.826538,567.462158 874.067017,566.053284 
	C882.737366,563.722229 890.630249,560.678650 894.762146,551.734070 
	C896.435791,548.111023 898.880066,544.842834 900.986084,541.420837 
	C906.280823,532.817749 911.582581,524.218994 916.671326,515.306091 
z"/>
<path fill="#FECFAC" opacity="1.000000" stroke="none" 
	d="
M973.941833,636.516724 
	C980.621216,635.059692 987.346924,634.021606 994.082092,633.049133 
	C997.156677,632.605225 1000.249878,632.290955 1003.753052,632.056152 
	C1003.789673,633.885254 1003.088379,635.573853 1003.077087,637.267151 
	C1002.992981,649.865967 1003.139526,662.466675 1003.010681,675.064697 
	C1002.957336,680.283081 1002.406494,685.496338 1001.863098,691.046387 
	C993.311096,691.380920 984.977844,691.380920 976.026367,691.380920 
	C976.026367,696.511292 976.026367,701.040649 976.026367,705.569946 
	C975.687378,704.038208 975.061157,702.507874 975.053589,700.974487 
	C974.972473,684.537842 975.062439,668.100098 974.934021,651.664001 
	C974.895752,646.761353 974.320984,641.862915 973.941833,636.516724 
z"/>
<path fill="#FECFAC" opacity="1.000000" stroke="none" 
	d="
M913.092773,633.544006 
	C921.397705,633.811035 929.919128,634.518799 938.452576,635.024231 
	C945.689819,635.452759 952.940918,635.647522 960.645264,636.067749 
	C960.078552,637.457642 958.176270,638.713867 958.159363,639.994934 
	C957.946960,656.126587 958.000000,672.261841 958.023254,688.396057 
	C958.024109,688.991089 958.413818,689.585571 958.320923,690.655029 
	C949.601440,691.459961 941.183411,691.790039 932.765381,692.120178 
	C932.844421,688.594360 933.117065,685.060425 932.968750,681.544189 
	C932.365906,667.253784 931.564880,652.971558 931.005798,638.679688 
	C930.889709,635.713196 929.056824,635.277039 926.939819,635.059082 
	C922.406311,634.592041 917.857239,634.275269 913.092773,633.544006 
z"/>
<path fill="#2C1504" opacity="1.000000" stroke="none" 
	d="
M1005.172485,491.370209 
	C1010.983643,486.075562 1016.862244,481.125336 1022.786865,476.230804 
	C1023.460510,475.674316 1024.392212,475.430328 1025.566650,475.049072 
	C1028.279419,478.926453 1031.730225,482.531830 1032.737549,486.724243 
	C1034.502197,494.068481 1030.326050,500.048218 1024.392700,503.624878 
	C1017.145691,507.993378 1009.126221,511.080292 1001.334900,514.964111 
	C999.874573,511.770599 998.119873,508.417206 997.383057,504.853363 
	C997.125488,503.607574 999.153870,501.595215 1000.527649,500.368896 
	C1003.176758,498.004089 1007.729431,496.854004 1005.172485,491.370209 
z"/>
<path fill="#2C1504" opacity="1.000000" stroke="none" 
	d="
M932.468750,692.234009 
	C941.183411,691.790039 949.601440,691.459961 958.475708,691.048035 
	C958.759155,695.678955 958.586304,700.391663 957.706055,705.379944 
	C948.044556,705.700256 939.090393,705.729858 930.136536,705.800903 
	C928.075134,705.817261 926.014954,705.976013 923.954163,706.069214 
	C923.954163,706.069214 923.969299,706.029724 924.471313,705.875366 
	C924.633423,704.457092 924.293396,703.193176 923.953430,701.929260 
	C923.953430,701.929260 923.983398,701.992615 924.275024,702.233765 
	C924.790955,702.012451 925.015198,701.550049 925.239441,701.087646 
	C927.550354,698.174377 929.861267,695.261108 932.468750,692.234009 
z"/>
<path fill="#2C1504" opacity="1.000000" stroke="none" 
	d="
M976.030029,705.524475 
	C976.026367,701.040649 976.026367,696.511292 976.026367,691.380920 
	C984.977844,691.380920 993.311096,691.380920 1002.192139,691.432129 
	C1003.470764,694.019287 1004.201538,696.555115 1004.770386,699.867432 
	C1004.683594,702.217529 1004.758667,703.791199 1004.839233,705.480164 
	C994.856812,705.480164 985.399658,705.480164 975.942505,705.480164 
	C975.942505,705.480164 976.033691,705.479004 976.030029,705.524475 
z"/>
<path fill="#FECFAC" opacity="1.000000" stroke="none" 
	d="
M904.750977,412.083313 
	C904.695984,421.062012 904.377319,430.072662 903.705383,439.056854 
	C903.330261,444.071838 902.368103,449.042908 901.289307,454.039246 
	C901.679260,448.968689 902.917114,443.908569 903.091187,438.812164 
	C903.267334,433.655518 901.984070,428.452942 902.110779,423.289398 
	C902.202698,419.545013 903.551331,415.831451 904.750977,412.083313 
z"/>
<path fill="#FECFAC" opacity="1.000000" stroke="none" 
	d="
M978.934998,376.790802 
	C968.658508,374.680603 958.278381,374.529510 947.385376,376.040558 
	C957.635681,372.518860 968.293274,372.999329 978.934998,376.790802 
z"/>
<path fill="#FECFAC" opacity="1.000000" stroke="none" 
	d="
M1005.556396,632.022949 
	C1006.706970,631.284424 1008.210571,630.366821 1009.842712,629.931519 
	C1016.301270,628.209045 1022.800232,626.637573 1029.678955,625.098389 
	C1024.255981,627.149292 1018.468689,629.210144 1012.604492,631.022522 
	C1010.487244,631.676880 1008.185852,631.735168 1005.556396,632.022949 
z"/>
<path fill="#FECFAC" opacity="1.000000" stroke="none" 
	d="
M975.975647,705.958008 
	C985.399658,705.480164 994.856812,705.480164 1004.839233,705.480164 
	C1004.758667,703.791199 1004.683594,702.217529 1004.777344,700.227234 
	C1005.440735,702.044250 1005.935303,704.277954 1006.413086,706.435913 
	C995.905701,706.435913 985.957214,706.435913 975.975647,705.958008 
z"/>
<path fill="#FECFAC" opacity="1.000000" stroke="none" 
	d="
M924.131592,706.472656 
	C926.014954,705.976013 928.075134,705.817261 930.136536,705.800903 
	C939.090393,705.729858 948.044556,705.700256 957.453674,705.701233 
	C957.240784,706.189026 956.573364,707.014771 955.904724,707.015808 
	C945.372925,707.031860 934.841003,706.941833 924.131592,706.472656 
z"/>
<path fill="#FECFAC" opacity="1.000000" stroke="none" 
	d="
M899.605469,504.065063 
	C898.709167,504.942566 897.406860,505.786346 895.583862,506.967438 
	C898.275085,508.103729 900.816650,509.176819 903.420044,510.627991 
	C900.872742,510.365021 898.216370,509.864777 895.677185,509.014496 
	C894.646912,508.669525 893.871826,507.562347 892.980652,506.802002 
	C893.839050,506.177399 894.623779,505.381317 895.574890,504.972504 
	C896.708557,504.485321 897.984985,504.330261 899.605469,504.065063 
z"/>
<path fill="#FECFAC" opacity="1.000000" stroke="none" 
	d="
M903.682617,511.222778 
	C904.633362,511.349762 905.811584,511.705536 907.201782,512.329224 
	C906.245911,512.215271 905.078064,511.833435 903.682617,511.222778 
z"/>
<path fill="#FECFAC" opacity="1.000000" stroke="none" 
	d="
M923.595215,702.045898 
	C924.293396,703.193176 924.633423,704.457092 924.450562,705.879456 
	C923.697571,704.746094 923.467285,703.454285 923.595215,702.045898 
z"/>
<path fill="#FECFAC" opacity="1.000000" stroke="none" 
	d="
M900.682495,453.978271 
	C900.918640,454.490326 900.835693,455.069885 900.440491,455.763916 
	C900.206665,455.267517 900.285095,454.656647 900.682495,453.978271 
z"/>
<path fill="#FECFAC" opacity="1.000000" stroke="none" 
	d="
M946.866699,376.133484 
	C946.633362,376.176727 946.197144,376.381287 945.550415,376.729675 
	C945.781189,376.680603 946.222534,376.487671 946.866699,376.133484 
z"/>
<path fill="#FECFAC" opacity="1.000000" stroke="none" 
	d="
M924.919189,701.041626 
	C925.015198,701.550049 924.790955,702.012451 924.241150,702.224976 
	C924.143433,701.648560 924.371216,701.322083 924.919189,701.041626 
z"/>
<path fill="#FECFAC" opacity="1.000000" stroke="none" 
	d="
M926.015503,429.001404 
	C934.939514,429.466431 943.863586,429.931458 953.447632,430.574890 
	C954.061340,431.195190 954.132080,431.693329 953.951050,432.070648 
	C951.378113,437.433044 951.801941,440.988525 955.430054,442.801514 
	C958.352966,444.262085 961.107910,444.288940 963.208435,441.224640 
	C965.664307,437.641876 964.768127,434.732697 959.999878,431.020752 
	C963.451050,431.274811 966.902283,431.528870 969.692688,431.734283 
	C970.171265,425.770935 970.633240,420.015228 971.121704,413.929321 
	C975.063293,419.487701 977.900452,424.642944 981.872803,428.681671 
	C984.488770,431.341461 988.582092,432.924438 992.299316,434.027924 
	C996.765442,435.353729 1001.304993,436.012695 1001.690002,441.876526 
	C1001.985962,446.382721 997.979858,452.670227 993.198120,453.617371 
	C988.359009,454.575867 985.504944,457.334503 982.367188,460.708923 
	C979.016113,464.312744 974.633301,466.948853 970.758545,470.078796 
	C969.571777,471.037415 968.575256,472.231567 967.658752,473.632568 
	C965.614136,481.664490 957.056824,484.413330 948.311340,479.953735 
	C946.852661,479.034821 945.803162,477.674438 944.650024,477.580078 
	C932.814392,476.611328 923.780823,471.529999 918.946289,460.149780 
	C924.989075,461.170105 927.956177,456.737091 931.865906,454.259583 
	C935.022888,459.269226 939.415710,461.256500 944.799072,460.586121 
	C948.703735,460.099884 951.821899,458.186035 953.293213,452.906219 
	C951.650085,454.300568 950.866638,455.016815 950.031128,455.665955 
	C945.116333,459.484222 939.834351,459.350586 935.074951,455.359680 
	C934.098938,454.541290 932.998413,453.871277 931.669128,452.879974 
	C930.096497,449.348999 928.810120,446.070862 927.742676,442.468719 
	C931.633240,437.145386 931.157104,435.402863 924.738525,430.350891 
	C925.163879,429.900757 925.589661,429.451080 926.015503,429.001404 
M938.362549,443.587036 
	C940.382019,444.255829 942.401550,444.924652 945.359863,445.904358 
	C942.515259,442.091187 939.930359,439.723206 936.154785,442.238159 
	C933.232117,444.184937 933.418274,446.930634 936.325806,450.057343 
	C936.432739,448.479889 936.378479,447.532562 936.589600,446.648590 
	C936.807312,445.737366 937.283386,444.887817 938.362549,443.587036 
z"/>
<path fill="#9CB894" opacity="1.000000" stroke="none" 
	d="
M927.523743,442.792725 
	C928.810120,446.070862 930.096497,449.348999 931.630615,453.089905 
	C931.878235,453.552704 931.698303,453.942322 931.698303,453.942322 
	C927.956177,456.737091 924.989075,461.170105 918.821472,459.781677 
	C912.387634,454.557312 911.880066,452.434265 915.191040,444.473206 
	C916.936401,443.412018 918.294617,442.755951 920.026123,442.283875 
	C922.774109,442.576141 925.148926,442.684418 927.523743,442.792725 
z"/>
<path fill="#FECFAC" opacity="1.000000" stroke="none" 
	d="
M919.652893,442.099884 
	C918.294617,442.755951 916.936401,443.412018 915.299194,444.062744 
	C914.280457,432.591125 914.863647,421.340271 920.936523,409.489716 
	C920.027893,416.920258 918.704529,423.087952 923.000366,428.871490 
	C917.536804,433.764984 916.780701,436.774261 919.652893,442.099884 
z"/>
<path fill="#000000" opacity="1.000000" stroke="none" 
	d="
M959.888489,430.683228 
	C964.768127,434.732697 965.664307,437.641876 963.208435,441.224640 
	C961.107910,444.288940 958.352966,444.262085 955.430054,442.801514 
	C951.801941,440.988525 951.378113,437.433044 953.951050,432.070648 
	C954.132080,431.693329 954.061340,431.195190 953.864807,430.433777 
	C955.673706,430.191437 957.725403,430.268585 959.888489,430.683228 
z"/>
<path fill="#000000" opacity="1.000000" stroke="none" 
	d="
M920.026123,442.283875 
	C916.780701,436.774261 917.536804,433.764984 923.174194,429.226196 
	C924.134888,429.093109 924.767029,429.126526 925.707397,429.080688 
	C925.589661,429.451080 925.163879,429.900757 924.738525,430.350891 
	C931.157104,435.402863 931.633240,437.145386 927.742676,442.468719 
	C925.148926,442.684418 922.774109,442.576141 920.026123,442.283875 
z"/>
<path fill="#2C1504" opacity="1.000000" stroke="none" 
	d="
M931.865906,454.259583 
	C931.698303,453.942322 931.878235,453.552704 931.916748,453.342773 
	C932.998413,453.871277 934.098938,454.541290 935.074951,455.359680 
	C939.834351,459.350586 945.116333,459.484222 950.031128,455.665955 
	C950.866638,455.016815 951.650085,454.300568 953.293213,452.906219 
	C951.821899,458.186035 948.703735,460.099884 944.799072,460.586121 
	C939.415710,461.256500 935.022888,459.269226 931.865906,454.259583 
z"/>
<path fill="#2C1504" opacity="1.000000" stroke="none" 
	d="
M938.004517,443.799164 
	C937.283386,444.887817 936.807312,445.737366 936.589600,446.648590 
	C936.378479,447.532562 936.432739,448.479889 936.325806,450.057343 
	C933.418274,446.930634 933.232117,444.184937 936.154785,442.238159 
	C939.930359,439.723206 942.515259,442.091187 945.359863,445.904358 
	C942.401550,444.924652 940.382019,444.255829 938.004517,443.799164 
z"/>
</svg>