<svg width="55" height="64" viewBox="0 0 55 64" fill="none" xmlns="http://www.w3.org/2000/svg">
<g clip-path="url(#clip0_1_3776)">
<path d="M17.8227 11.7297C8.92074 16.8671 5.86899 28.2458 11.0097 37.142C16.1505 46.0383 27.5366 49.088 36.4386 43.9506C45.346 38.8114 48.3977 27.4327 43.257 18.5347C38.1163 9.63844 26.7301 6.58867 17.8227 11.7279V11.7297ZM19.3908 14.4438C21.6073 13.1657 24.4346 13.9232 25.7153 16.1365C26.9924 18.3462 26.2362 21.177 24.0214 22.4568C21.8103 23.7331 18.9795 22.9702 17.7024 20.7605C16.4253 18.5508 17.1815 15.72 19.3926 14.4438H19.3908ZM12.5275 32.396C11.2486 30.1809 12.0066 27.3555 14.2213 26.0756C16.4325 24.7993 19.2615 25.5569 20.5404 27.7719C21.8193 29.987 21.0613 32.8124 18.8502 34.0887C16.6336 35.3667 13.8028 34.6056 12.5257 32.396H12.5275ZM28.3305 42.6492C26.114 43.9273 23.2868 43.1698 22.0061 40.9565C20.729 38.7468 21.4852 35.916 23.6999 34.6362C25.911 33.3599 28.7473 34.1192 30.0244 36.3289C31.3015 38.5386 30.5417 41.373 28.3305 42.6492ZM27.9246 29.2151C27.1684 29.6513 26.1966 29.3946 25.7566 28.6353C25.3165 27.8743 25.5805 26.9049 26.3367 26.4687C27.0983 26.0289 28.0701 26.2856 28.5102 27.0467C28.9502 27.8078 28.6862 28.7772 27.9246 29.2151ZM39.3826 36.2732C37.1661 37.5513 34.3388 36.7938 33.0581 34.5805C31.781 32.3708 32.5372 29.54 34.752 28.2602C36.9631 26.9839 39.7993 27.7432 41.0764 29.9529C42.3553 32.168 41.5937 34.997 39.3826 36.2732ZM36.7404 23.7869C34.5239 25.065 31.6966 24.3075 30.4159 22.0942C29.1388 19.8845 29.895 17.0537 32.1098 15.7739C34.3209 14.4976 37.1571 15.2569 38.4342 17.4666C39.7131 19.6817 38.9515 22.5107 36.7404 23.7869Z" fill="#0A4035"/>
<path d="M54.0751 27.955C54.014 42.6976 41.94 54.7351 27.1895 54.7675C20.9064 54.7818 15.1154 52.6421 10.5243 49.0485C10.4489 48.9892 10.4273 48.8815 10.4758 48.7989L13.6964 43.2289C13.7575 43.1248 13.8958 43.1015 13.9874 43.1805C17.6391 46.3164 22.426 48.1617 27.6458 48.0325C38.4427 47.7632 47.1921 38.9173 47.3411 28.1255C47.4974 16.8383 38.3889 7.6387 27.1302 7.6387C15.8716 7.6387 7.02532 16.578 6.91575 27.6408V63.1575C6.91575 63.2634 6.82954 63.3495 6.72356 63.3495H0.381159C0.275183 63.3513 0.188965 63.2634 0.188965 63.1575L0.194353 27.6408C0.293145 12.8641 12.3187 0.910889 27.1285 0.910889C41.9382 0.910889 54.1362 13.0292 54.0733 27.955H54.0751Z" fill="#0A4035"/>
</g>
<defs>
<clipPath id="clip0_1_3776">
<rect width="53.8862" height="62.4404" fill="white" transform="translate(0.189453 0.910889)"/>
</clipPath>
</defs>
</svg>
